<svg width="642" height="642" viewBox="0 0 642 642" fill="none" xmlns="http://www.w3.org/2000/svg">
<g clip-path="url(#clip0_300_5)">
<path fill-rule="evenodd" clip-rule="evenodd" d="M414.17 208.577C426.474 208.021 432.054 213.848 430.912 226.06C426.917 235.219 420.204 238.052 410.773 234.558C403.708 229.695 401.848 223.301 405.193 215.376C407.389 211.979 410.382 209.713 414.17 208.577Z" fill="black"/>
<path fill-rule="evenodd" clip-rule="evenodd" d="M213.272 210.52C221.845 210.52 230.418 210.52 238.991 210.52C238.991 248.237 238.991 285.954 238.991 323.671C230.418 323.671 221.845 323.671 213.272 323.671C213.272 285.954 213.272 248.237 213.272 210.52Z" fill="black"/>
<path fill-rule="evenodd" clip-rule="evenodd" d="M177.848 244.514C184.727 243.862 191.359 244.833 197.744 247.428C198.391 255.198 198.391 262.968 197.744 270.738C187.116 264.598 179.756 267.351 175.664 278.993C173.862 286.752 175.722 293.47 181.245 299.147C187.034 302.955 192.534 302.55 197.744 297.933C198.31 305.536 198.391 313.144 197.986 320.757C182.672 328.777 169.246 326.349 157.71 313.473C151.463 305.079 148.309 295.61 148.247 285.064C148.2 270.429 153.862 258.613 165.231 249.613C169.208 247.214 173.413 245.514 177.848 244.514Z" fill="black"/>
<path fill-rule="evenodd" clip-rule="evenodd" d="M357.395 244.514C366.999 243.647 376.138 245.266 384.812 249.37C385.135 256.978 385.135 264.586 384.812 272.195C379.038 266.653 372.164 264.306 364.188 265.153C361.283 266.192 360.231 268.216 361.034 271.223C364.335 274.049 368.137 275.91 372.438 276.808C390.568 284.462 394.855 296.845 385.297 313.959C378.178 321.808 369.282 325.693 358.608 325.614C349.805 325.213 341.475 323.027 333.617 319.058C333.055 311.081 332.974 303.068 333.374 295.019C338.089 299.362 343.508 302.519 349.63 304.489C353.344 305.703 356.903 305.38 360.306 303.518C363.322 300.746 363.484 297.832 360.791 294.776C355.308 292.19 349.809 289.6 344.293 287.006C335.372 281.693 331.733 273.842 333.374 263.453C335.743 255.739 340.677 250.316 348.175 247.185C351.245 246.055 354.319 245.165 357.395 244.514Z" fill="black"/>
<path fill-rule="evenodd" clip-rule="evenodd" d="M552.712 102.224C486.484 33.8935 405.524 0.22335 309.839 1.2136C233.418 4.59873 166.452 31.2273 108.941 81.0994C36.4586 147.687 0.711076 230.486 1.69837 329.498L73.1993 334.252L140.483 338.725C140.352 326.091 140.595 313.465 141.211 300.846C143.322 261.802 152.218 224.409 167.9 188.666C196.394 127.293 243.06 86.9046 307.898 67.5018C391.081 43.5286 462.172 62.8728 521.17 125.534C580.857 194.656 607.872 275.108 602.209 366.891C598.21 433.405 572.084 489.333 523.839 534.676C486.663 567.616 444.124 591.412 396.215 606.063C378.56 611.993 360.443 615.552 341.866 616.747C289.321 618.306 239.178 608.108 191.435 586.152C104.63 545.743 49.1486 479.129 24.9909 386.316C19.6799 385.482 14.3421 384.835 8.97728 384.374L8.49213 384.617L8.00676 384.86C17.7055 430.158 36.0645 471.436 63.0839 508.695C113.67 575.755 180.393 617.441 263.254 633.744C357.082 648.837 441.679 627.79 517.045 570.612C591.416 509.914 631.771 431.321 638.118 334.84C640.782 245.518 612.312 167.979 552.712 102.224ZM49.9819 213.919C45.9021 209.332 40.8069 207.551 34.6962 208.577C30.0566 210.386 26.7407 213.624 24.7483 218.29C23.9194 231.382 29.9851 237.129 42.9456 235.529C52.7299 230.763 55.0752 223.56 49.9819 213.919ZM105.544 244.513C118.378 243.04 126.871 248.381 131.02 260.539C131.738 281.56 131.981 302.604 131.748 323.671H106.03C106.111 306.835 106.03 290 105.787 273.166C105.711 267.901 103.204 266.04 98.2654 267.581C95.8808 269.714 94.5061 272.385 94.1407 275.594C93.898 291.618 93.817 307.644 93.898 323.671H68.1792V245.97C75.6216 245.889 83.0621 245.97 90.5012 246.213C91.2009 248.639 92.0909 250.986 93.1701 253.255C96.3185 248.88 100.443 245.966 105.544 244.513ZM51.6803 245.971H25.4762V323.671H51.6803V245.971Z" fill="black"/>
<path fill-rule="evenodd" clip-rule="evenodd" d="M256.46 245.971C264.99 245.813 273.482 245.975 281.937 246.456C282.098 263.615 282.26 280.774 282.422 297.933C283.502 302.642 286.171 303.856 290.429 301.575C291.62 300.406 292.51 299.03 293.098 297.447C293.259 280.45 293.421 263.453 293.583 246.456C302.2 245.975 310.853 245.812 319.544 245.971C319.544 271.871 319.544 297.771 319.544 323.671C312.104 323.671 304.663 323.671 297.222 323.671C296.705 321.148 295.897 318.72 294.796 316.387C286.474 326.219 276.769 327.919 265.68 321.486C260.452 316.93 257.459 311.183 256.703 304.246C256.46 284.821 256.379 265.396 256.46 245.971Z" fill="black"/>
<path fill-rule="evenodd" clip-rule="evenodd" d="M404.465 245.971C413.038 245.971 421.611 245.971 430.184 245.971C430.184 271.871 430.184 297.771 430.184 323.671C421.611 323.671 413.038 323.671 404.465 323.671C404.465 297.771 404.465 271.871 404.465 245.971Z" fill="black"/>
<path fill-rule="evenodd" clip-rule="evenodd" d="M440.859 245.971C449.918 245.971 458.976 245.971 468.034 245.971C470.189 262.199 472.615 278.386 475.313 294.534C478.116 278.512 480.866 262.487 483.562 246.456C492.292 245.971 501.027 245.809 509.766 245.971C502.488 271.871 495.209 297.771 487.93 323.671C479.195 323.671 470.46 323.671 461.726 323.671C454.872 297.937 447.755 272.28 440.374 246.699C440.644 246.513 440.806 246.27 440.859 245.971Z" fill="black"/>
<path fill-rule="evenodd" clip-rule="evenodd" d="M581.828 275.108C578.64 253.382 566.105 243.183 544.22 244.514C538.63 245.599 533.452 247.785 528.692 251.07C516.58 262.496 511.809 276.498 514.376 293.076C516.987 309.286 526.129 319.727 541.794 324.399C554.939 326.697 567.231 324.35 578.673 317.358C579.241 309.269 579.319 301.175 578.916 293.076C575.087 296.097 571.128 298.931 567.027 301.575C553.605 306.682 544.87 302.392 540.823 288.706C554.571 288.22 568.318 288.058 582.07 288.22C582.153 283.846 582.07 279.476 581.828 275.108ZM557.565 263.939C555.517 260.607 552.523 258.988 548.587 259.083C547.287 259.498 545.996 260.065 544.705 260.782C541.095 264.499 539.397 268.951 539.61 274.137C546.122 274.698 552.673 274.779 559.263 274.38C559.836 270.761 559.268 267.281 557.565 263.939Z" fill="black"/>
<path fill-rule="evenodd" clip-rule="evenodd" d="M257.916 348.924C266.002 349.53 269.156 353.901 267.379 362.036C263.923 367.395 259.313 368.609 253.549 365.678C249.682 361.686 249.115 357.234 251.85 352.323C253.665 350.73 255.686 349.596 257.916 348.924Z" fill="black"/>
<path fill-rule="evenodd" clip-rule="evenodd" d="M412.714 350.381C418.376 350.381 424.037 350.381 429.698 350.381C429.698 375.148 429.698 399.915 429.698 424.682C424.037 424.682 418.376 424.682 412.714 424.682C412.714 399.915 412.714 375.148 412.714 350.381Z" fill="black"/>
<path fill-rule="evenodd" clip-rule="evenodd" d="M220.066 372.719C226.639 372.102 232.866 373.235 238.748 376.118C239.072 381.136 239.072 386.155 238.748 391.173C234.709 387.18 229.937 385.643 224.433 386.559C222.969 387.74 222.645 389.197 223.463 390.93C227.997 392.66 232.365 394.764 236.565 397.243C241.548 401.197 243.247 406.296 241.66 412.54C239.042 420.012 233.785 424.302 225.889 425.41C218.561 426.292 211.606 425.078 205.023 421.767C204.457 416.433 204.376 411.091 204.78 405.742C209.137 410.149 214.394 412.334 220.551 412.298C224.14 410.792 224.787 408.525 222.492 405.499C217.491 403.618 212.8 401.19 208.42 398.214C203.342 391.716 203.262 385.16 208.177 378.546C211.697 375.611 215.66 373.668 220.066 372.719Z" fill="black"/>
<path fill-rule="evenodd" clip-rule="evenodd" d="M357.395 372.719C365.504 371.878 370.923 375.277 373.651 382.917C374.363 396.814 374.605 410.735 374.379 424.681C368.717 424.681 363.056 424.681 357.395 424.681C357.476 413.025 357.395 401.37 357.152 389.716C355.649 386.89 353.708 386.566 351.329 388.745C350.71 389.821 350.225 390.955 349.873 392.144C349.63 402.989 349.549 413.834 349.63 424.681C343.969 424.681 338.308 424.681 332.646 424.681C332.646 407.684 332.646 390.687 332.646 373.69C337.502 373.61 342.354 373.69 347.204 373.933C347.806 375.45 348.373 376.988 348.902 378.546C351.089 375.559 353.919 373.616 357.395 372.719Z" fill="black"/>
<path fill-rule="evenodd" clip-rule="evenodd" d="M250.637 373.69C256.299 373.69 261.96 373.69 267.621 373.69C267.621 390.687 267.621 407.684 267.621 424.681C261.96 424.681 256.299 424.681 250.637 424.681C250.637 407.684 250.637 390.687 250.637 373.69Z" fill="black"/>
<path fill-rule="evenodd" clip-rule="evenodd" d="M196.531 388.745C192.862 376.663 184.693 371.321 172.025 372.72C169.573 373.38 167.147 374.27 164.746 375.391C155.624 382.197 151.661 391.342 152.857 402.829C153.825 412.524 158.596 419.566 167.172 423.953C176.838 426.974 186.058 425.923 194.832 420.797C195.398 415.462 195.479 410.12 195.075 404.771C192.54 406.822 189.871 408.683 187.068 410.356C178.279 413.324 172.78 410.33 170.569 401.372H197.259C197.423 397.134 197.18 392.925 196.531 388.745ZM182.458 388.745C181.708 384.19 179.039 382.085 174.451 382.432C171.093 384.714 169.475 387.952 169.599 392.145H182.701C182.78 391 182.699 389.867 182.458 388.745Z" fill="black"/>
<path fill-rule="evenodd" clip-rule="evenodd" d="M144.365 350.381H127.381C127.543 358.966 127.381 367.546 126.896 376.119C120.54 371.536 114.232 371.617 107.971 376.362C102.047 382.977 99.2965 390.747 99.7211 399.672C99.2485 408.754 102.16 416.524 108.456 422.982C116.031 427.542 122.501 426.328 127.866 419.34C128.729 421.013 129.214 422.794 129.322 424.682H144.365V350.381ZM127.138 389.231C125.77 387.292 123.91 386.482 121.558 386.803C119.576 388.064 118.201 389.845 117.433 392.145C116.354 397.047 116.516 401.903 117.918 406.714C121.272 412.568 124.345 412.407 127.138 406.228C127.462 400.562 127.462 394.897 127.138 389.231Z" fill="black"/>
<path fill-rule="evenodd" clip-rule="evenodd" d="M305.957 377.576C302.099 373.644 297.408 372.026 291.884 372.72C290.032 373.37 288.253 374.261 286.546 375.391C281.296 380.15 278.142 386.059 277.084 393.116C275.023 404.408 278.016 414.039 286.061 422.011C292.874 426.217 298.94 425.327 304.259 419.34C305.866 427.962 302.388 432.819 293.825 433.909C288.727 433.3 284.198 431.358 280.238 428.081C279.672 433.578 279.592 439.082 279.995 444.593C285.482 447.686 291.386 449.304 297.707 449.449C311.138 448.556 318.983 441.434 321.243 428.081C321.485 409.952 321.566 391.822 321.485 373.691C317.761 373.61 314.041 373.691 310.324 373.934C308.798 375.057 307.342 376.271 305.957 377.576ZM304.259 389.231C302.842 387.435 300.982 386.626 298.678 386.803C295.144 389.703 293.527 393.508 293.825 398.215C293.562 402.257 294.695 405.819 297.222 408.899C301.152 410.369 303.497 408.994 304.259 404.771C304.582 399.591 304.582 394.411 304.259 389.231Z" fill="black"/>
<path fill-rule="evenodd" clip-rule="evenodd" d="M507.34 350.381H490.841V424.682C494.563 424.763 498.285 424.682 502.002 424.439C503.24 423.038 504.613 421.824 506.127 420.797L506.666 421.208C507.857 422.118 509.054 423.033 510.252 423.953C513.988 425.81 517.87 426.134 521.898 424.925C528.565 421.235 532.85 415.651 534.757 408.171C537.659 396.583 535.558 386.061 528.449 376.605C520.894 370.881 513.94 371.528 507.583 378.547C507.34 369.16 507.258 359.771 507.34 350.381ZM516.318 389.231C515.007 387.594 513.309 386.947 511.222 387.288C508.888 388.884 507.675 391.15 507.583 394.087C507.258 398.944 507.258 403.8 507.583 408.656C511.635 412.709 514.867 412.061 517.288 406.714C519.166 400.745 518.841 394.917 516.318 389.231Z" fill="black"/>
<path fill-rule="evenodd" clip-rule="evenodd" d="M473.857 376.847C468.427 373.264 462.442 371.888 455.903 372.719C451.916 373.51 448.034 374.805 444.256 376.604C443.691 381.129 443.61 385.661 444.014 390.202C449.508 385.603 455.574 384.551 462.211 387.045C463.713 388.031 464.522 389.407 464.637 391.173C461.342 391.372 458.107 391.939 454.932 392.873C449.069 394.223 444.297 397.218 440.617 401.857C437.247 409.73 438.622 416.61 444.742 422.496C451.993 427.287 458.624 426.558 464.637 420.311C465.414 421.673 465.899 423.13 466.093 424.682C471.919 424.763 477.742 424.682 483.562 424.439C482.338 421.728 481.449 418.895 480.893 415.94C480.305 406.403 479.981 396.852 479.923 387.288C479.087 383.104 477.065 379.624 473.857 376.847ZM464.88 399.915C464.554 399.549 464.15 399.387 463.667 399.429C461.919 399.91 460.14 400.477 458.329 401.129C454.585 403.365 453.534 406.521 455.175 410.598C458.155 414.462 461.067 414.462 463.909 410.598C464.974 407.106 465.298 403.545 464.88 399.915Z" fill="black"/>
</g>
<defs>
<clipPath id="clip0_300_5">
<rect width="642" height="642" fill="white"/>
</clipPath>
</defs>
</svg>
